<svg xmlns="http://www.w3.org/2000/svg" style="display: none;">
  
    <symbol id="icon-user-approve" viewBox="0 0 512 512">
      <path d="m440 355l-56 57l-35-36c-4-4-11-4-15 0c-4 4-4 11 0 15l49 51l73-72c4-4 4-11 0-15c-5-4-11-4-16 0z m-163-46l0-54c32-25 53-68 53-116c0-77-52-139-117-139c-65 0-117 62-117 139c0 48 21 91 53 116l0 47l-99 35c-30 11-50 39-50 71l0 61l245 0l0-21l-224 0l0-40c0-23 15-43 36-50l114-41l0-49c13 6 27 9 42 9c15 0 30-3 43-9l0 41z m-64-288c47 0 86 42 94 96c0 0 0 0 0 1c-31 6-50-5-68-36l-10-17l-9 17c-10 19-43 35-71 35c-10 0-20-2-29-5c10-52 48-91 93-91z m0 235c-53 0-96-53-96-117c0-2 0-4 0-6c10 4 21 6 32 6c29 0 62-14 80-33c17 23 37 34 62 34c6 0 12 0 18-1c0 64-43 117-96 117z m182 21c-65 0-118 53-118 118c0 64 53 117 118 117c64 0 117-53 117-117c0-65-53-118-117-118z m0 214c-53 0-96-43-96-96c0-53 43-96 96-96c53 0 96 43 96 96c0 53-43 96-96 96z"/>
    </symbol>
  
    <symbol id="icon-cloud" viewBox="0 0 512 512">
      <path d="m397 149c-27-52-82-85-141-85c-81 0-148 60-158 139c-3 0-5 0-7 0c-50 0-91 40-91 90c0 47 25 69 47 79c22 11 45 12 49 12l309 0l2 0c1 0 105-15 105-117c0-64-51-116-115-118z m8 214l-309 0l0 10l0-10c-8 0-75-2-75-70c0-38 31-69 70-69c4 0 9 0 14 1l12 3l1-12c4-73 65-131 138-131c53 0 102 32 125 80l3 6l7 0c55-2 100 42 100 96c0 80-78 94-86 96z"/>
    </symbol>
  
    <symbol id="icon-team" viewBox="0 0 512 512">
      <path d="m128 235l107 0l0-22c0-16-13-33-29-37l-46-13l0-17c19-14 32-38 32-66c0-44-33-80-75-80c-41 0-74 36-74 80c0 28 12 52 32 66l0 17l-47 13c-16 4-28 21-28 37l0 22z m-11-214c24 0 45 18 51 42c-3 1-7 2-12 1c-5-1-14-3-19-12c-1-3-4-5-7-6c-4 0-7 1-10 3c-15 16-39 17-53 12c8-23 27-40 50-40z m-53 61c19 6 43 4 62-10c7 7 16 12 27 13c2 1 5 1 8 1c3 0 6-1 9-1c-1 30-25 55-53 55c-29 0-52-26-53-58z m-30 114l62-17l0-21c7 2 14 3 21 3c8 0 15-1 22-3l0 21l62 17c6 2 12 10 12 17l-192 0c0-7 6-15 13-17z m450-20l-47-13l0-17c20-14 32-38 32-66c0-44-33-80-74-80c-42 0-75 36-75 80c0 28 13 52 32 66l0 17l-46 13c-16 4-29 21-29 37l0 22l235 0l0-22c0-16-12-33-28-37z m-89-155c24 0 44 18 51 42c-4 1-8 2-13 1c-5-1-14-3-18-12c-2-3-5-5-8-6c-3 0-7 1-9 3c-16 16-39 17-54 12c8-23 28-40 51-40z m-54 61c19 6 43 4 63-10c6 7 16 12 26 13c3 0 5 1 8 1c3 0 7-1 10-2c-2 31-25 56-53 56c-29 0-53-26-54-58z m64 131l-106 0c0-7 6-15 12-17l62-17l0-21c7 2 14 3 22 3c7 0 14-1 21-3l0 21l62 17c7 2 13 10 13 17z m-60 240l-46-13l0-16c19-15 32-39 32-66c0-45-34-81-75-81c-41 0-75 36-75 81c0 27 13 51 32 66l0 16l-46 13c-16 5-28 21-28 38l0 21l234 0l0-21c0-17-12-33-28-38z m-89-154c24 0 44 17 51 41c-4 1-8 2-13 1c-5-1-13-3-18-12c-2-3-4-5-8-5c-3-1-6 0-9 3c-15 15-39 17-53 11c7-23 27-39 50-39z m-53 60c19 6 43 4 62-9c7 6 16 11 26 12c2 0 5 1 7 1c4 0 8-1 11-2c-1 31-25 56-53 56c-29 0-52-26-53-58z m64 132l-107 0c0-7 6-15 13-17l62-18l0-21c6 2 14 3 21 3c7 0 15-1 21-3l0 21l62 18c7 2 13 10 13 17z m-121-163c4-5 4-11 0-16l-53-53c-4-4-11-4-15 0c-4 4-4 11 0 15l53 54c2 2 5 3 8 3c2 0 5-1 7-3z m273-69l-53 53c-4 5-4 11 0 16c2 2 5 3 7 3c3 0 6-1 8-3l53-54c4-4 4-11 0-15c-4-4-11-4-15 0z"/>
    </symbol>
  
    <symbol id="icon-statistics" viewBox="0 0 512 512">
      <path d="m501 0l-490 0c-6 0-11 5-11 11l0 320c0 6 5 10 11 10l234 0l0 49l-103 104c-4 4-4 11 0 15c4 4 11 4 15 0l99-99l99 99c2 2 5 3 8 3c2 0 5-1 7-3c4-4 4-11 0-15l-103-104l0-49l234 0c6 0 11-4 11-10l0-320c0-6-5-11-11-11z m-10 320l-470 0l0-299l470 0z m-438-21l406 0c6 0 10-5 10-11l0-235c0-6-4-10-10-10l-406 0c-6 0-10 4-10 10l0 235c0 6 4 11 10 11z m395-235l0 213l-384 0l0-85l75 0c3 0 6-1 8-4l32-40l35 80c2 4 5 6 9 7c0 0 1 0 1 0c3 0 6-2 8-4l46-55l34 34c3 2 6 4 9 3c3 0 6-2 8-4l74-107c4-5 3-11-2-15c-5-3-12-2-15 3l-67 96l-34-34c-2-2-5-3-8-3c-3 0-6 2-8 4l-42 51l-36-80c-1-4-5-6-8-7c-4 0-8 1-10 4l-39 50l-70 0l0-107z"/>
    </symbol>
  
    <symbol id="icon-project" viewBox="0 0 512 512">
      <path d="m480 85l-32 0l0-21l-107 0l0 21l-32 0c-29 0-51 14-64 38c-12-24-35-38-64-38l-170 0c-6 0-11 5-11 11l0 341c0 6 5 11 11 11l170 0c37 0 54 16 54 53c0 6 4 11 10 11c6 0 11-5 11-11c0-37 16-53 53-53l171 0c6 0 11-5 11-11l0-341c0-6-5-11-11-11z m-117 0l64 0l0 145l-32-32l-32 32z m-182 342l-160 0l0-320l160 0c48 0 54 44 54 64l0 273c-13-12-31-17-54-17z m288 0l-160 0c-23 0-40 5-53 17l0-273c0-20 5-64 53-64l32 0l0 175l54-54l53 54l0-175l21 0z"/>
    </symbol>
  
    <symbol id="icon-sync" viewBox="0 0 512 512">
      <path d="m117 426c-14 0-27-5-37-15c-11-10-16-24-16-38l0-235c1-29 24-53 54-53c0 0 0 0 0 0l151 0l-32 48c-3 5-2 11 3 15c2 1 4 1 6 1c3 0 7-1 9-4l42-64c1-1 1-1 1-1c0-1 0-1 0-1c1-3 1-5 1-8c-1 0-1-1-1-1c0 0 0-1-1-1l-42-64c-3-5-10-6-15-3c-5 3-6 10-3 15l32 47l-151 0c0 0 0 0 0 0c-41 0-75 33-75 74l0 235c0 20 7 39 21 53c14 14 33 22 53 22c0 0 0 0 0 0c6 0 11-5 11-11c0-6-5-11-11-11z m288-340c-14-14-32-22-52-22c0 0 0 0 0 0c-6 0-11 5-11 11c0 6 5 11 11 11c14 0 27 5 37 15c10 10 16 24 16 38l-1 235c0 29-24 53-53 53l-151 0l32-48c3-5 2-11-3-15c-5-3-12-1-15 3l-43 64c0 1 0 1 0 1c0 1-1 1-1 2c-1 2-1 5 0 7c0 0 1 1 1 1c0 0 0 1 0 1l43 64c2 3 5 5 9 5c2 0 4-1 6-2c5-3 6-10 3-15l-32-47l151 0c0 0 0 0 0 0c41 0 75-33 75-74l0-235c0-20-8-39-22-53z"/>
    </symbol>
  
    <symbol id="icon-time" viewBox="0 0 512 512">
      <path d="m407 156l23-24l3 4c3 2 5 3 8 3c3 0 5-1 8-3c4-5 4-11 0-16l-22-21c-4-4-11-4-15 0c-4 4-4 11 0 15l3 3l-23 24c-30-28-69-47-111-53l0-67l32 0c6 0 11-4 11-10c0-6-5-11-11-11l-128 0c-6 0-11 5-11 11c0 6 5 10 11 10l32 0l0 67c-102 16-181 104-181 211c0 117 95 213 213 213c118 0 213-96 213-213c0-55-21-105-55-143z m-169-135l22 0l0 65c-4 0-7-1-11-1c-4 0-7 1-11 1z m11 470c-106 0-192-86-192-192c0-106 86-192 192-192c106 0 192 86 192 192c0 106-86 192-192 192z m-88-296c-5-4-11-4-16 0c-4 4-4 11 0 15l96 96c3 2 5 3 8 3c3 0 5-1 8-3c4-4 4-11 0-15z"/>
    </symbol>
  
    <symbol id="icon-security" viewBox="0 0 512 512">
      <path d="m256 299c-12 0-21 9-21 21c0 8 4 15 10 18l0 57c0 6 5 10 11 10c6 0 11-4 11-10l0-57c6-3 10-10 10-18c0-12-9-21-21-21z m128-107l0-64c0-71-57-128-128-128c-71 0-128 57-128 128l0 64l-64 0l0 320l384 0l0-320z m-235-64c0-59 48-107 107-107c59 0 107 48 107 107l0 64l-214 0z m278 363l-342 0l0-278l342 0z"/>
    </symbol>
  
</svg>
