<svg xmlns="http://www.w3.org/2000/svg" style="display: none;">
  
    <symbol id="icon-time" viewBox="0 0 512 512">
      <path d="m293 155l0 128c0 3-1 5-3 7c-2 2-4 3-7 3l-91 0c-3 0-5-1-7-3c-1-2-2-4-2-7l0-18c0-3 1-5 2-6c2-2 4-3 7-3l64 0l0-101c0-2 1-4 3-6c1-2 3-3 6-3l18 0c3 0 5 1 7 3c2 2 3 4 3 6z m118 101c0-28-7-54-20-78c-14-24-33-43-57-57c-24-13-50-20-78-20c-28 0-54 7-78 20c-24 14-43 33-57 57c-13 24-20 50-20 78c0 28 7 54 20 78c14 24 33 43 57 57c24 13 50 20 78 20c28 0 54-7 78-20c24-14 43-33 57-57c13-24 20-50 20-78z m64 0c0 40-9 77-29 110c-20 34-46 60-80 80c-33 20-70 29-110 29c-40 0-77-9-110-29c-34-20-60-46-80-80c-20-33-29-70-29-110c0-40 9-77 29-110c20-34 46-60 80-80c33-20 70-29 110-29c40 0 77 9 110 29c34 20 60 46 80 80c20 33 29 70 29 110z"/>
    </symbol>
  
    <symbol id="icon-project" viewBox="0 0 512 512">
      <path d="m487 137c7 10 9 23 5 36l-79 259c-3 12-11 23-22 31c-11 8-22 12-35 12l-263 0c-15 0-29-5-43-15c-13-10-23-23-28-37c-5-13-5-25-1-37c0 0 0-3 1-7c1-5 1-8 1-11c0-2 0-4-1-6c0-3-1-5-1-6c1-2 2-4 3-6c1-2 2-4 4-6c2-3 4-5 5-7c5-7 9-16 13-26c4-10 7-19 9-26c0-2 0-5 0-9c-1-4-1-6 0-8c0-2 2-5 4-8c3-3 5-5 5-7c4-6 8-15 12-26c4-11 7-19 7-26c1-1 0-4 0-9c-1-4-1-7 0-8c1-2 3-5 6-8c4-4 6-6 6-7c4-5 8-13 13-24c4-11 7-20 7-28c1-1 0-4 0-7c-1-3-1-6-1-7c0-2 1-4 3-6c1-1 3-4 5-6c2-3 3-5 5-6c1-2 3-5 4-9c2-3 3-7 5-10c1-3 2-6 4-10c2-4 4-7 6-9c2-3 4-5 7-7c3-2 7-3 11-3c3 0 8 0 13 1l0 1c7-2 12-2 14-2l218 0c14 0 25 5 32 16c8 10 10 23 6 37l-79 259c-7 22-13 37-20 43c-7 7-19 10-37 10l-248 0c-5 0-9 2-11 5c-2 3-2 7 0 12c4 13 18 20 41 20l264 0c5 0 10-2 16-5c5-3 8-6 10-11l85-282c2-5 2-10 2-17c7 3 13 7 17 13z m-304 0c-1 3-1 5 0 7c1 1 3 2 6 2l174 0c2 0 4-1 7-2c2-2 4-4 5-7l6-18c0-3 0-5-1-7c-1-1-3-2-6-2l-173 0c-3 0-5 1-8 2c-2 2-4 4-4 7z m-24 73c-1 3-1 5 0 7c2 2 3 2 6 2l174 0c2 0 5 0 7-2c3-2 4-4 5-7l6-18c1-2 0-5-1-6c-1-2-3-3-5-3l-174 0c-3 0-5 1-7 3c-3 1-4 4-5 6z"/>
    </symbol>
  
    <symbol id="icon-security" viewBox="0 0 512 512">
      <path d="m183 219l146 0l0-54c0-21-7-38-21-52c-15-14-32-22-52-22c-20 0-37 8-52 22c-14 14-21 31-21 52z m238 28l0 164c0 8-3 15-8 20c-6 5-12 8-20 8l-274 0c-8 0-14-3-20-8c-5-5-8-12-8-20l0-164c0-8 3-14 8-20c6-5 12-8 20-8l9 0l0-54c0-35 13-66 38-91c25-25 55-37 90-37c35 0 65 12 90 37c25 25 38 56 38 91l0 54l9 0c8 0 14 3 20 8c5 6 8 12 8 20z"/>
    </symbol>
  
    <symbol id="icon-team" viewBox="0 0 512 512">
      <path d="m158 256c-29 1-52 12-71 34l-35 0c-15 0-27-3-37-11c-10-7-15-17-15-31c0-63 11-94 33-94c1 0 5 1 12 5c6 4 15 8 26 12c10 3 21 5 31 5c12 0 24-2 36-6c-1 7-1 13-1 18c0 24 7 47 21 68z m286 170c0 21-7 38-20 50c-13 13-30 19-51 19l-234 0c-21 0-38-6-51-19c-13-12-20-29-20-50c0-10 1-19 1-28c1-9 2-18 4-29c2-10 4-20 7-29c3-9 7-17 11-26c5-8 11-15 17-21c6-6 14-11 23-15c9-3 19-5 30-5c1 0 5 2 11 6c6 4 12 8 19 13c8 4 17 9 29 12c12 4 24 6 36 6c12 0 24-2 36-6c12-3 21-8 29-12c7-5 13-9 19-13c6-4 10-6 11-6c11 0 21 2 30 5c9 4 17 9 23 15c6 6 12 13 17 21c4 9 8 17 11 26c3 9 5 19 7 29c2 11 3 20 4 29c0 9 1 18 1 28z m-273-341c0 19-7 35-20 49c-14 13-30 20-49 20c-18 0-35-7-48-20c-13-14-20-30-20-49c0-19 7-35 20-48c13-13 30-20 48-20c19 0 35 7 49 20c13 13 20 29 20 48z m187 103c0 28-10 52-30 72c-20 20-44 30-72 30c-28 0-52-10-72-30c-20-20-30-44-30-72c0-29 10-53 30-73c20-20 44-30 72-30c28 0 52 10 72 30c20 20 30 44 30 73z m154 60c0 14-5 24-15 31c-10 8-22 11-37 11l-35 0c-19-22-42-33-71-34c14-21 21-44 21-68c0-5 0-11-1-18c12 4 24 6 36 6c10 0 21-2 31-5c11-4 20-8 26-12c7-4 11-5 12-5c22 0 33 31 33 94z m-34-163c0 19-7 35-20 49c-13 13-30 20-48 20c-19 0-35-7-49-20c-13-14-20-30-20-49c0-19 7-35 20-48c14-13 30-20 49-20c18 0 35 7 48 20c13 13 20 29 20 48z"/>
    </symbol>
  
    <symbol id="icon-cloud" viewBox="0 0 512 512">
      <path d="m512 324c0 29-10 53-30 73c-20 20-44 30-72 30l-291 0c-32 0-61-12-84-35c-23-24-35-52-35-85c0-23 6-45 19-64c13-20 29-34 50-44c-1-5-1-9-1-11c0-38 14-70 40-97c27-26 59-40 97-40c28 0 53 8 76 24c23 15 40 36 50 61c13-11 27-17 44-17c19 0 35 7 49 20c13 14 20 30 20 49c0 13-4 25-11 37c23 5 42 17 57 35c15 19 22 40 22 64z"/>
    </symbol>
  
    <symbol id="icon-share" viewBox="0 0 512 512">
      <path d="m475 274c-29-45-65-78-108-101c11 20 17 42 17 65c0 35-13 65-38 90c-25 25-55 38-90 38c-35 0-65-13-90-38c-25-25-38-55-38-90c0-23 6-45 17-65c-43 23-79 56-108 101c25 39 57 70 95 94c38 23 79 34 124 34c45 0 86-11 124-34c38-24 70-55 95-94z m-205-109c0-4-2-7-4-10c-3-3-6-4-10-4c-24 0-44 8-61 25c-17 17-26 38-26 62c0 4 1 7 4 9c3 3 6 4 10 4c4 0 7-1 10-4c2-2 4-5 4-9c0-17 5-31 17-42c12-12 26-18 42-18c4 0 7-1 10-4c2-2 4-6 4-9z m242 109c0 7-2 13-6 20c-26 44-62 79-107 105c-45 27-93 40-143 40c-50 0-98-13-143-40c-45-26-81-61-107-105c-4-7-6-13-6-20c0-6 2-13 6-19c26-44 62-79 107-106c45-26 93-39 143-39c50 0 98 13 143 39c45 27 81 62 107 106c4 6 6 13 6 19z"/>
    </symbol>
  
</svg>
