<?xml version="1.0" encoding="utf-8"?>
<!-- Generator: Adobe Illustrator 16.0.0, SVG Export Plug-In . SVG Version: 6.00 Build 0)  -->
<!DOCTYPE svg PUBLIC "-//W3C//DTD SVG 1.1//EN" "http://www.w3.org/Graphics/SVG/1.1/DTD/svg11.dtd">
<svg version="1.1" id="Layer_1" xmlns="http://www.w3.org/2000/svg" xmlns:xlink="http://www.w3.org/1999/xlink" x="0px" y="0px"
	 width="400px" height="100px" viewBox="0 0 400 100" enable-background="new 0 0 400 100" xml:space="preserve">
<g>
	<path fill="#FFFFFF" d="M138.57,64.808c0-0.128-0.197,0.192-0.197,0.192H124.87h-13.307H96.916C95.38,65,94,62.496,94,60.961V39H82
		v25.537c0,0.127-10.359,19.837-10.359,19.837c0,3.332,3.443,6.626,6.773,6.626h65.435c3.332,0,6.033-2.979,6.033-6.311
		L138.57,64.808z"/>
</g>
<path fill="#FFFFFF" d="M100.839,33h24.031c1.536,0,1.13-0.456,1.13,1.08V58h11V26.542c0-3.331-2.47-5.542-5.802-5.542H96v-6.522
	C96,11.146,93.812,9,90.479,9h-0.753C86.394,9,82,11.146,82,14.478v12.064V33h14.916H100.839z"/>
<g>
	<path fill="#FFFFFF" d="M165.99,42.14h-8.985v-6.139h24.91v6.139h-8.985v25.354h-6.939V42.14z"/>
	<path fill="#FFFFFF" d="M198.773,63.757c-1.067,1.364-2.417,2.418-4.048,3.158c-1.631,0.742-3.321,1.112-5.071,1.112
		c-1.661,0-3.225-0.267-4.693-0.8c-1.467-0.534-2.743-1.298-3.825-2.291c-1.083-0.994-1.935-2.186-2.558-3.581
		c-0.623-1.394-0.934-2.95-0.934-4.67c0-1.721,0.311-3.276,0.934-4.671c0.623-1.394,1.475-2.587,2.558-3.581
		c1.082-0.993,2.358-1.757,3.825-2.291c1.468-0.534,3.032-0.8,4.693-0.8c1.542,0,2.943,0.267,4.204,0.8
		c1.26,0.534,2.327,1.298,3.202,2.291c0.875,0.994,1.55,2.188,2.024,3.581c0.474,1.395,0.712,2.95,0.712,4.671v2.09h-15.48
		c0.267,1.275,0.845,2.29,1.735,3.047s1.986,1.135,3.292,1.135c1.097,0,2.023-0.244,2.78-0.734c0.756-0.489,1.415-1.119,1.979-1.89
		L198.773,63.757z M193.125,54.239c0.03-1.128-0.341-2.092-1.112-2.892c-0.771-0.801-1.764-1.202-2.98-1.202
		c-0.742,0-1.394,0.119-1.957,0.356c-0.564,0.237-1.046,0.541-1.446,0.912c-0.4,0.371-0.711,0.802-0.934,1.29
		c-0.222,0.489-0.349,1-0.378,1.535H193.125z"/>
	<path fill="#FFFFFF" d="M216.076,64.78h-0.089c-0.741,1.156-1.728,1.988-2.958,2.491c-1.23,0.504-2.528,0.756-3.893,0.756
		c-1.008,0-1.979-0.14-2.912-0.422c-0.936-0.281-1.758-0.704-2.47-1.269c-0.712-0.562-1.275-1.26-1.69-2.09
		c-0.416-0.83-0.622-1.793-0.622-2.892c0-1.245,0.229-2.298,0.688-3.157c0.46-0.86,1.082-1.571,1.869-2.135
		c0.784-0.563,1.683-1.002,2.69-1.313s2.054-0.542,3.137-0.69c1.082-0.147,2.164-0.236,3.247-0.266
		c1.082-0.029,2.083-0.045,3.002-0.045c0-1.186-0.422-2.128-1.268-2.825c-0.846-0.696-1.846-1.045-3.002-1.045
		c-1.098,0-2.1,0.229-3.003,0.689c-0.905,0.46-1.712,1.091-2.424,1.891l-3.56-3.647c1.246-1.157,2.698-2.024,4.36-2.603
		c1.659-0.578,3.38-0.867,5.158-0.867c1.958,0,3.567,0.244,4.827,0.734c1.26,0.489,2.269,1.208,3.024,2.157
		c0.757,0.95,1.282,2.112,1.579,3.491c0.298,1.379,0.445,2.974,0.445,4.782v10.987h-6.139V64.78z M214.431,58.019
		c-0.506,0-1.134,0.024-1.891,0.067c-0.757,0.045-1.482,0.171-2.18,0.379c-0.697,0.206-1.289,0.518-1.779,0.934
		c-0.489,0.416-0.732,0.993-0.732,1.734c0,0.802,0.339,1.394,1.022,1.78c0.681,0.386,1.393,0.578,2.135,0.578
		c0.652,0,1.281-0.091,1.89-0.268c0.607-0.179,1.15-0.429,1.624-0.756c0.475-0.326,0.853-0.741,1.135-1.246
		c0.281-0.504,0.422-1.096,0.422-1.779v-1.424H214.431z"/>
	<path fill="#FFFFFF" d="M225.062,45.875h6.404v2.937h0.09c0.208-0.416,0.503-0.831,0.889-1.246c0.387-0.416,0.847-0.786,1.38-1.112
		c0.533-0.326,1.142-0.593,1.824-0.801c0.682-0.207,1.423-0.311,2.223-0.311c1.513,0,2.854,0.311,4.027,0.934
		c1.171,0.623,2.053,1.602,2.646,2.936c0.771-1.394,1.704-2.387,2.803-2.98c1.097-0.593,2.445-0.889,4.048-0.889
		c1.452,0,2.676,0.244,3.669,0.734c0.995,0.489,1.779,1.156,2.358,2.002c0.578,0.845,0.992,1.839,1.245,2.979
		c0.252,1.142,0.379,2.366,0.379,3.67v12.767h-6.673V54.906c0-1.009-0.215-1.876-0.645-2.603c-0.431-0.728-1.193-1.09-2.292-1.09
		c-0.771,0-1.417,0.127-1.935,0.378c-0.519,0.252-0.934,0.6-1.245,1.045s-0.534,0.964-0.667,1.558c-0.134,0.594-0.2,1.216-0.2,1.869
		v11.431h-6.673V56.063c0-0.387-0.015-0.86-0.044-1.425c-0.03-0.562-0.134-1.097-0.312-1.602c-0.179-0.504-0.466-0.934-0.867-1.289
		c-0.4-0.356-0.987-0.534-1.758-0.534c-0.859,0-1.556,0.155-2.09,0.466c-0.534,0.312-0.943,0.729-1.223,1.247
		c-0.284,0.519-0.467,1.105-0.557,1.757c-0.09,0.652-0.135,1.335-0.135,2.046v10.765h-6.671V45.875z"/>
	<path fill="#FFFFFF" d="M269.099,33.866v14.946h0.09c0.146-0.416,0.398-0.831,0.755-1.246c0.355-0.416,0.785-0.786,1.29-1.112
		c0.504-0.326,1.098-0.593,1.779-0.801c0.682-0.207,1.423-0.311,2.225-0.311c1.69,0,3.054,0.26,4.092,0.778
		c1.037,0.519,1.846,1.238,2.424,2.157c0.579,0.92,0.972,2.002,1.179,3.247c0.207,1.247,0.312,2.596,0.312,4.049v11.921h-6.672
		V56.906c0-0.622-0.022-1.267-0.067-1.934s-0.178-1.282-0.4-1.846s-0.563-1.023-1.023-1.379c-0.461-0.356-1.119-0.534-1.979-0.534
		c-0.86,0-1.559,0.155-2.092,0.466c-0.534,0.312-0.941,0.729-1.224,1.247c-0.281,0.519-0.466,1.105-0.556,1.757
		c-0.089,0.652-0.133,1.335-0.133,2.046v10.765h-6.673V33.866H269.099z"/>
	<path fill="#FFFFFF" d="M307.44,67.494h-6.405v-2.937h-0.089c-0.237,0.416-0.542,0.831-0.912,1.247
		c-0.371,0.414-0.823,0.784-1.356,1.11c-0.534,0.327-1.143,0.593-1.824,0.802c-0.683,0.206-1.423,0.311-2.223,0.311
		c-1.691,0-3.062-0.26-4.116-0.778c-1.052-0.519-1.867-1.237-2.446-2.156c-0.578-0.919-0.963-2.003-1.156-3.247
		c-0.193-1.246-0.289-2.596-0.289-4.048V45.875h6.673v10.587c0,0.623,0.021,1.268,0.066,1.936c0.044,0.667,0.178,1.282,0.399,1.846
		c0.223,0.562,0.563,1.021,1.024,1.378c0.459,0.355,1.119,0.535,1.979,0.535c0.859,0,1.556-0.156,2.09-0.468
		c0.533-0.312,0.941-0.728,1.223-1.246c0.282-0.519,0.468-1.105,0.557-1.758c0.089-0.65,0.134-1.333,0.134-2.045V45.875h6.672
		V67.494z"/>
	<path fill="#FFFFFF" d="M311.444,33.866h6.673v14.323h0.088c0.771-1.038,1.757-1.772,2.958-2.202
		c1.201-0.429,2.498-0.645,3.892-0.645c1.543,0,2.921,0.319,4.137,0.957s2.247,1.49,3.092,2.557c0.846,1.067,1.498,2.291,1.957,3.67
		c0.46,1.378,0.69,2.824,0.69,4.336c0,1.632-0.253,3.129-0.757,4.493c-0.505,1.364-1.224,2.543-2.157,3.537
		c-0.934,0.993-2.055,1.764-3.358,2.312c-1.306,0.549-2.758,0.823-4.36,0.823c-0.77,0-1.497-0.104-2.179-0.311
		c-0.683-0.209-1.312-0.475-1.89-0.802c-0.578-0.326-1.083-0.688-1.514-1.089c-0.43-0.401-0.777-0.794-1.045-1.179h-0.088v2.847
		h-6.139V33.866z M317.583,56.686c0,1.63,0.466,2.95,1.401,3.958c0.934,1.009,2.245,1.514,3.936,1.514
		c1.691,0,3.003-0.505,3.937-1.514c0.935-1.008,1.401-2.328,1.401-3.958c0-1.632-0.467-2.95-1.401-3.959
		c-0.934-1.009-2.245-1.513-3.937-1.513c-1.69,0-3.002,0.504-3.936,1.513C318.049,53.735,317.583,55.054,317.583,56.686z"/>
</g>
</svg>
